<?xml version="1.0" encoding="UTF-8"?><svg id="a" xmlns="http://www.w3.org/2000/svg" width="32.401" height="33.07" viewBox="0 0 32.401 33.07"><path d="M32.158.778l-.132-.111-4.86,5.552c-1.65-1.852-4.044-3.026-6.713-3.026h-11.21C4.28,3.192.243,7.23.243,12.192v11.21c0,4.962,4.038,9,9,9h11.21c4.962,0,9-4.038,9-9v-11.21c0-1.879-.58-3.623-1.569-5.068l4.274-6.346ZM27.453,12.192v11.21c0,3.86-3.14,7-7,7h-11.21c-3.86,0-7-3.14-7-7v-11.21c0-3.86,3.14-7,7-7h11.21c2.166,0,4.104.989,5.389,2.538l-11.751,13.424-8.901-6.716-.11.08,8.893,13.264,12.68-18.829c.509.97.8,2.07.8,3.239Z" fill="currentColor"/></svg>