<?xml version="1.0" encoding="UTF-8"?><svg id="a" xmlns="http://www.w3.org/2000/svg" width="66.557" height="66.557" viewBox="0 0 66.557 66.557"><path d="M62.883,0H3.675C1.645,0,0,1.645,0,3.675v59.211c0,2.027,1.645,3.672,3.675,3.672h31.878v-25.774h-8.675v-10.045h8.675v-7.407c0-8.597,5.25-13.278,12.92-13.278,3.675,0,6.83.275,7.751.397v8.985l-5.319.003c-4.171,0-4.978,1.983-4.978,4.889v6.414h9.948l-1.295,10.045h-8.652v25.772h16.961c2.024,0,3.669-1.645,3.669-3.675V3.675C66.557,1.645,64.913,0,62.883,0Z" fill="currentColor"/></svg>