<?xml version="1.0" encoding="UTF-8"?><svg id="a" xmlns="http://www.w3.org/2000/svg" width="287.651" height="36.538" viewBox="0 0 287.651 36.538"><polygon points="23.958 13.662 19.209 0 14.46 13.662 0 13.956 11.526 22.694 7.337 36.538 19.209 28.277 31.081 36.538 26.893 22.694 38.419 13.956 23.958 13.662" fill="currentColor"/><polygon points="86.266 13.662 81.517 0 76.769 13.662 62.308 13.956 73.834 22.694 69.645 36.538 81.517 28.277 93.389 36.538 89.201 22.694 100.727 13.956 86.266 13.662" fill="currentColor"/><polygon points="148.574 13.662 143.826 0 139.077 13.662 124.616 13.956 136.142 22.694 131.954 36.538 143.826 28.277 155.698 36.538 151.509 22.694 163.035 13.956 148.574 13.662" fill="currentColor"/><polygon points="210.883 13.662 206.134 0 201.385 13.662 186.925 13.956 198.45 22.694 194.262 36.538 206.134 28.277 218.006 36.538 213.818 22.694 225.343 13.956 210.883 13.662" fill="currentColor"/><polygon points="287.651 13.956 273.191 13.662 268.442 0 263.693 13.662 249.233 13.956 260.758 22.694 256.57 36.538 268.442 28.277 280.314 36.538 276.126 22.694 287.651 13.956" fill="currentColor"/></svg>