<?xml version="1.0" encoding="UTF-8"?><svg id="a" xmlns="http://www.w3.org/2000/svg" width="143.906" height="143.906" viewBox="0 0 143.906 143.906"><path d="M71.953,0C32.278,0,0,32.278,0,71.953c0,33.074,22.438,60.989,52.885,69.369v.754h1.5v-.348c5.714,1.439,11.588,2.178,17.52,2.178,5.348,0,10.744-.601,16.112-1.83h.687v-.159c31.62-7.571,55.203-36.057,55.203-69.964C143.906,32.278,111.628,0,71.953,0ZM88.704,140.378v-25.697h-1.5v26.044c-5.148,1.141-10.278,1.681-15.311,1.681-6.02,0-11.901-.773-17.507-2.218v-25.508h-1.5v25.082c-21.517-6.059-38.716-21.993-46.638-42.432,1.55-.579,3.266-.876,4.92-.933.851,7.037,7.185,11.003,13.957,11.038-.002-.25-.006-.5-.006-.75,0,0,.095.5.143.75,4.202-.022,8.724-1.654,11.459-5.087-.14,19.179-.158,20.362-.158,24.215,0,1.35.002,3.027.002,5.919.112.065,1.386.8,1.5.862,0-3.116-.002-4.92-.002-6.389,0-4.164.019-5.646.163-26.694,1.364-7.406,7.367-11.264,14.895-11.471,1.007,9.031,8.968,13.509,16.945,13.509,8.021,0,16.06-4.528,17.061-13.509.371,0,12.757-.146,14.895,11.471.144,21.039.163,22.298.163,27.224,0,1.753-.002,3.971-.002,7.709,1.456-.688.799-.386,1.5-.738,0-3.542.002-5.646.002-7.298,0-4.69-.018-5.739-.154-25.679,2.632,4.025,7.554,5.932,12.135,5.955-.002-.25-.006-.5-.006-.75,0,0,.095.5.143.75,6.77-.036,13.054-4.039,13.9-11.038,2.611.089,5.254.733,7.446,2.23-8.734,21.268-27.077,36.519-48.443,41.751ZM25.067,64.061c-4.496,0-9.006,1.409-11.96,4.271.327-12.372,2.695-14.864,11.959-14.947,9.276.084,11.646,2.575,11.973,14.948-2.895-2.832-7.426-4.271-11.971-4.271ZM25.06,65.567c4.561,0,9.122,1.552,11.682,4.637-.133.25-1.025,1.926-1.538,2.89-.062.04-.124.049-.168.049-.448-.068-2.823-3.402-9.975-3.402-7.362,0-9.479,3.402-9.95,3.402-.059,0-.118-.017-.168-.049-.213-.4-1.026-1.926-1.539-2.89,2.571-3.098,7.115-4.637,11.657-4.637ZM13.683,73.923l.13.176c.36.363.828.544,1.296.544,1.851,0,2.414-3.397,9.963-3.397s8.121,3.397,9.962,3.397c.468,0,.936-.181,1.296-.544l.742-1.372c.168.203.371.31.655.31.411,0,1.582.42,1.582,2.288v.373c0,2.059-.669,3.494-1.271,3.494h-.625c-1.209,6.63-5.399,12.17-12.249,12.243l-.049-.003-.031.75-.009-.75c-6.846-.071-11.098-5.54-12.319-12.241h-.625c-.601,0-1.271-1.435-1.271-3.494v-.373c0-1.867,1.171-2.288,1.582-2.288.267,0,.462-.09.625-.269l.615,1.155ZM17.75,90.563c1.88,1.371,4.281,2.327,7.335,2.367l.023.003c2.589,0,5.136-.768,7.293-2.334.621,2.814,2.864,4.84,5.234,5.777-.874,6.368-6.671,9.55-12.468,9.55s-11.647-3.211-12.482-9.63c2.314-.97,4.471-2.97,5.065-5.732ZM70.008,49.545c-5.627,0-11.256,1.813-14.813,5.447.521-13.648,4.099-17.569,14.808-17.666,10.721.097,14.301,4.018,14.821,17.666-3.547-3.629-9.18-5.447-14.816-5.447ZM69.997,51.044c5.71,0,11.407,1.967,14.513,5.839-.004.007-1.47,2.736-1.955,3.638-.099.075-.217.115-.338.115-.667-.109-3.496-4.165-12.208-4.165-8.908,0-11.577,4.165-12.209,4.165-.117,0-.235-.038-.338-.115-.284-.529-1.78-3.313-1.955-3.638,3.177-3.913,8.84-5.839,14.49-5.839ZM55.32,59.702l.883,1.644.128.173c.408.411.939.617,1.47.617,2.115,0,2.994-4.172,12.195-4.172s10.103,4.172,12.222,4.172c.531,0,1.062-.206,1.47-.617l1.014-1.862c.208.35.447.511.817.511.547,0,2.108.546,2.108,2.973v.457c0,2.454-.774,4.451-1.726,4.451h-.626c-1.204,6.631-5.728,14.903-15.228,15l-.021.75-.014-.75c-9.494-.098-14.03-8.356-15.235-15h-.626c-.952,0-1.726-1.997-1.726-4.451v-.457c0-2.427,1.562-2.973,2.108-2.973.352,0,.584-.151.786-.466ZM60.941,81.559c2.625,1.977,5.855,2.994,9.103,2.994,3.178,0,6.374-.973,9.039-2.971.676,3.567,3.534,6.113,6.505,7.248-1.021,7.984-8.234,11.967-15.451,11.967-7.255,0-14.513-4.025-15.49-12.056,2.899-1.177,5.643-3.69,6.294-7.182ZM115.593,64.14c-4.452,0-8.911,1.389-11.867,4.204.625-8.549,3.657-12.224,11.878-12.298,7.717.069,11.235,3.179,11.892,12.298-2.928-2.791-7.412-4.204-11.903-4.204ZM115.611,65.65c4.55,0,9.101,1.544,11.666,4.632-.128.235-1.021,1.873-1.532,2.81-.063.041-.125.051-.171.051-.445-.099-2.899-3.403-9.975-3.403-7.362,0-9.479,3.403-9.95,3.403-.06,0-.119-.018-.171-.051-.218-.4-1.022-1.873-1.533-2.81,2.565-3.088,7.116-4.632,11.666-4.632ZM104.226,73.93l.126.169c.36.363.828.544,1.296.544,1.851,0,2.414-3.398,9.963-3.398s8.121,3.398,9.962,3.398c.468,0,.936-.181,1.296-.544l.752-1.358c.166.195.367.296.645.296.411,0,1.582.42,1.582,2.288v.373c0,2.059-.669,3.494-1.271,3.494h-.625c-1.209,6.63-5.399,12.17-12.249,12.243l-.049-.003-.031.75-.009-.75c-6.846-.071-11.098-5.54-12.319-12.241h-.625c-.601,0-1.271-1.435-1.271-3.494v-.373c0-1.867,1.171-2.288,1.582-2.288.261,0,.454-.088.614-.26l.628,1.152ZM108.289,90.563c1.88,1.371,4.281,2.327,7.335,2.367l.023.003c2.589,0,5.136-.768,7.293-2.334.621,2.814,2.864,4.84,5.234,5.777-.872,6.355-6.683,9.545-12.488,9.545s-11.626-3.2-12.462-9.625c2.314-.97,4.471-2.97,5.065-5.732ZM128.498,94.885c-2.098-.903-4.032-2.802-4.224-5.399,3.267-3.113,4.565-7.423,4.928-8.895,1.308-.442,2.148-2.297,2.148-4.893v-.373c0-2.067-1.128-3.232-2.233-3.629-.042-12.245-3.836-17.062-13.513-17.149-9.666.087-13.459,4.907-13.499,17.158-1.096.407-2.204,1.571-2.204,3.62v.373c0,2.596.841,4.451,2.148,4.893.362,1.465,1.652,5.741,4.902,8.85-.174,2.62-2.116,4.536-4.227,5.444-.753,0-.512.005-1.07.024-2.801-4.854-8.172-7.629-15.213-7.629h-.675c-2.654-1.132-5.105-3.544-5.315-6.85,4.09-3.856,5.661-9.272,6.071-10.969,1.582-.46,2.605-2.701,2.605-5.863v-.457c0-2.516-1.403-3.898-2.733-4.324-.018-17.5-3.855-22.877-16.392-22.99-12.526.113-16.362,5.491-16.379,22.999-1.32.439-2.698,1.822-2.698,4.315v.457c0,3.163,1.023,5.403,2.605,5.863.408,1.692,1.972,7.08,6.037,10.934-.195,3.324-2.652,5.749-5.316,6.885-8.244,0-13.111,3.226-15.65,7.609-.041,0-.429-.004-.644-.004-2.098-.903-4.032-2.802-4.224-5.399,3.267-3.113,4.565-7.423,4.928-8.895,1.308-.442,2.148-2.297,2.148-4.893v-.373c0-2.065-1.126-3.23-2.23-3.629-.017-15.006-1.913-19.707-13.516-19.812-11.591.104-13.486,4.808-13.502,19.821-1.095.408-2.201,1.572-2.201,3.619v.373c0,2.596.841,4.451,2.148,4.893.362,1.465,1.652,5.741,4.902,8.85-.174,2.62-2.116,4.536-4.227,5.444-2.262,0-4.32.228-6.484,1.029-2.715-7.484-4.201-15.552-4.201-23.961C1.5,33.105,33.105,1.5,71.953,1.5s70.453,31.605,70.453,70.453c0,8.887-1.67,17.386-4.687,25.223-2.85-1.825-5.967-2.291-9.222-2.291Z" fill="currentColor"/></svg>