<?xml version="1.0" encoding="UTF-8"?><svg id="a" xmlns="http://www.w3.org/2000/svg" width="20.132" height="20.132" viewBox="0 0 20.132 20.132"><path d="M6.622,13.51C3.507,10.395,1.016,6.11.846,4.12c-.065-.757.09-1.582.93-2.12,0,0,.969-.607,1.566-.977.632-.39,1.224-.152,1.591.446.557.907,2.005,3.023,2.164,3.182s.509,1.178-.095,1.878c-.915,1.06-1.739,1.452-.525,2.976.582.73,1.241,1.471,1.96,2.19.719.719,1.46,1.379,2.19,1.96,1.523,1.213,1.916.39,2.976-.525.7-.605,1.719-.255,1.878-.095s2.275,1.607,3.182,2.164c.598.367.836.96.446,1.591-.37.598-.977,1.566-.977,1.566-.538.84-1.363.995-2.12.93-1.99-.171-6.275-2.661-9.39-5.776Z" fill="currentColor"/></svg>