<?xml version="1.0" encoding="UTF-8"?><svg id="a" xmlns="http://www.w3.org/2000/svg" width="162.144" height="162.144" viewBox="0 0 162.144 162.144"><path d="M81.072,0C36.369,0,0,36.369,0,81.072s36.369,81.072,81.072,81.072,81.072-36.369,81.072-81.072S125.775,0,81.072,0ZM81.072,160.644C37.196,160.644,1.5,124.948,1.5,81.072S37.196,1.5,81.072,1.5s79.572,35.696,79.572,79.572-35.696,79.572-79.572,79.572Z" fill="currentColor"/><path d="M119.629,30.533h-13.573v-2.785c0-1.581-1.286-2.867-2.867-2.867h-14.275c-.279-4.334-3.894-7.775-8.297-7.775s-8.025,3.441-8.304,7.775h-14.268c-1.581,0-2.866,1.286-2.866,2.867v2.785h-13.643c-3.17,0-5.75,2.58-5.75,5.75v93.195c0,3.17,2.58,5.75,5.75,5.75h78.093c3.17,0,5.75-2.58,5.75-5.75V36.283c0-3.17-2.58-5.75-5.75-5.75ZM56.678,27.749c0-.753.613-1.367,1.366-1.367h15.837c-.082-.811-.086-.824-.086-.92,0-.012,0-.025,0-.041,0-3.757,3.06-6.814,6.821-6.814s6.814,3.057,6.814,6.814c0,.02,0,.036,0,.05,0,.098-.005.109-.08.911h15.837c.753,0,1.367.613,1.367,1.367v16.668c0,.753-.613,1.367-1.367,1.367h-45.145c-.753,0-1.366-.613-1.366-1.367v-16.668ZM58.044,47.284h45.145c1.581,0,2.867-1.286,2.867-2.867v-5.209h9.146v81.845H46.782V39.208h8.396v5.209c0,1.581,1.286,2.867,2.866,2.867ZM123.879,129.478c0,2.343-1.907,4.25-4.25,4.25H41.536c-2.343,0-4.25-1.907-4.25-4.25V36.283c0-2.343,1.907-4.25,4.25-4.25h13.643v5.675h-9.896v84.845h71.419V37.708h-10.646v-5.675h13.573c2.343,0,4.25,1.907,4.25,4.25v93.195Z" fill="currentColor"/><rect x="58.573" y="60.304" width="44.969" height="1.5" fill="currentColor"/><rect x="58.573" y="70.147" width="44.969" height="1.5" fill="currentColor"/><rect x="58.573" y="79.991" width="44.969" height="1.5" fill="currentColor"/><rect x="58.573" y="89.834" width="44.969" height="1.5" fill="currentColor"/><rect x="58.573" y="99.678" width="44.969" height="1.5" fill="currentColor"/><path d="M80.55,27.012c1.448,0,2.622-1.174,2.622-2.622s-1.174-2.622-2.622-2.622-2.622,1.174-2.622,2.622,1.174,2.622,2.622,2.622Z" fill="currentColor"/></svg>