<?xml version="1.0" encoding="UTF-8"?><svg id="a" xmlns="http://www.w3.org/2000/svg" width="32.968" height="28.775" viewBox="0 0 32.968 28.775"><path d="M26.637,16.442c-.732,0-1.464.176-2.168.479.411-5.671,3.46-9.992,8.499-12.893l-2.22-4.028c-7.399,3.782-11.839,10.605-11.839,18.827,0,6.248,3.124,9.948,7.399,9.948,3.617,0,6.084-2.631,6.084-6.331,0-3.535-2.385-6.002-5.756-6.002Z" fill="#4a71a0"/><path d="M14.059,4.028L11.839,0C4.439,3.782,0,10.605,0,18.827c0,6.248,3.124,9.948,7.398,9.948,3.618,0,6.084-2.631,6.084-6.331,0-3.535-2.384-6.002-5.755-6.002-.732,0-1.464.176-2.168.479.411-5.671,3.46-9.992,8.499-12.893Z" fill="currentColor"/></svg>