<?xml version="1.0" encoding="UTF-8"?><svg id="a" xmlns="http://www.w3.org/2000/svg" width="287.651" height="36.538" viewBox="0 0 287.651 36.538"><polygon points="19.209 0 23.958 13.662 38.418 13.956 26.893 22.694 31.081 36.538 19.209 28.277 7.337 36.538 11.526 22.694 0 13.956 14.46 13.662 19.209 0" fill="#cc0d0d"/><polygon points="81.517 0 86.266 13.662 100.727 13.956 89.201 22.694 93.389 36.538 81.517 28.277 69.645 36.538 73.834 22.694 62.308 13.956 76.769 13.662 81.517 0" fill="#cc0d0d"/><polygon points="143.826 0 148.574 13.662 163.035 13.956 151.509 22.694 155.698 36.538 143.826 28.277 131.954 36.538 136.142 22.694 124.616 13.956 139.077 13.662 143.826 0" fill="#cc0d0d"/><polygon points="206.134 0 210.883 13.662 225.343 13.956 213.818 22.694 218.006 36.538 206.134 28.277 194.262 36.538 198.45 22.694 186.925 13.956 201.385 13.662 206.134 0" fill="#cc0d0d"/><polygon points="268.442 0 273.191 13.662 287.651 13.956 276.126 22.694 280.314 36.538 268.442 28.277 256.57 36.538 260.758 22.694 249.233 13.956 263.693 13.662 268.442 0" fill="currentColor"/></svg>