<?xml version="1.0" encoding="UTF-8"?><svg id="a" xmlns="http://www.w3.org/2000/svg" width="162.143" height="162.144" viewBox="0 0 162.143 162.144"><path d="M81.071,0C36.369,0,0,36.369,0,81.072s36.369,81.072,81.071,81.072,81.072-36.369,81.072-81.072S125.774,0,81.071,0ZM81.071,160.644C37.195,160.644,1.5,124.948,1.5,81.072S37.195,1.5,81.071,1.5s79.572,35.696,79.572,79.572-35.696,79.572-79.572,79.572Z" fill="currentColor"/><path d="M103.319,85.602h-5.553c-.146.146-.699.699-1.048,1.048l-.721-.721c.275-.51.905-1.676,1.357-2.514-.263-.263-2.802-2.802-3.808-3.808-.354.354-2.535,2.535-3.802,3.802l-3.928-3.928,15.528-15.529c2.767,1.469,5.791,2.184,8.797,2.184,10.48,0,18.888-8.488,18.888-18.829,0-1.913-.292-3.846-.891-5.736l-.373-1.176-11.686,11.686-8.929-1.79-1.785-8.924,11.685-11.685-1.174-.374c-1.89-.602-3.825-.895-5.74-.895-10.327,0-18.83,8.409-18.83,18.894,0,3.007.717,6.03,2.188,8.795l-15.528,15.529-26.042-26.038c-1.178-1.891-2.466-3.957-3.699-5.936-.085-.059-5.622-3.898-8.433-5.847-.295.295-3.396,3.396-4.651,4.651.238.343,3.897,5.623,5.847,8.433.088.055,3.957,2.466,5.936,3.699l26.042,26.039-18.677,18.678c-2.767-1.47-5.79-2.186-8.797-2.186-10.479,0-18.888,8.489-18.888,18.831,0,1.913.292,3.846.891,5.735l.373,1.176,11.686-11.686,8.93,1.79,1.785,8.924-11.685,11.685c2.131.679,3.972,1.269,6.915,1.269,10.921,0,18.848-9.048,18.848-18.924,0-2.92-.693-5.912-2.206-8.765l18.677-18.678,3.928,3.927c-.768.768-2.244,2.244-3.366,3.366.354.354,2.539,2.539,3.808,3.808.328-.177,1.676-.905,2.514-1.357l.721.721c-.203.203-.699.699-1.049,1.049v5.555c.147.146,24.701,24.654,31.778,31.719h5.553c.146-.146,7.076-7.077,10.395-10.395v-5.555c-.147-.146-24.701-24.654-31.778-31.719ZM95.357,56.359l-.285-.498c-1.526-2.668-2.269-5.621-2.269-8.556,0-9.657,7.835-17.391,17.333-17.391,1.356,0,2.723.16,4.073.485l-10.474,10.474,2.137,10.691,10.698,2.145,10.473-10.473c.324,1.349.483,2.714.483,4.068,0,9.531-7.752,17.332-17.386,17.332-2.936,0-5.889-.742-8.559-2.265l-.497-.284-16.331,16.332-5.729-5.728,16.332-16.333ZM60.273,102.903l.284.497c1.523,2.67,2.265,5.623,2.265,8.558,0,9.66-7.832,17.39-17.329,17.39-1.356,0-2.723-.16-4.073-.485l10.474-10.474-2.138-10.691-10.697-2.145-10.473,10.473c-.324-1.349-.483-2.714-.483-4.068,0-9.53,7.752-17.334,17.386-17.334,2.936,0,5.888.742,8.558,2.267l.498.284,19.48-19.481,5.729,5.728-19.48,19.481ZM47.861,49.412l-5.819-3.626-4.956-7.149,2.879-2.879,7.149,4.957,3.626,5.819c7.072,7.071,36.279,36.274,37.942,37.937l-2.879,2.879c-1.309-1.309-30.87-30.866-37.942-37.937ZM133.597,122.255l-9.516,9.516h-4.311l-30.899-30.842v-4.311l1.67-1.67h0l-2.572-2.572-2.514,1.357-1.957-1.958h0l2.305-2.305h0c.354-.354,5.161-5.161,7.742-7.742l1.958,1.958-1.357,2.514,2.572,2.572c.278-.278,1.113-1.113,1.67-1.67h4.311l30.899,30.842v4.311Z" fill="currentColor"/><path d="M93.705,97.985l28.849,28.792c.177-.177.706-.708,1.06-1.062l-28.849-28.792-1.06,1.062Z" fill="currentColor"/><path d="M98.622,92.889l28.849,28.792c.177-.177.706-.708,1.06-1.062l-28.849-28.792c-.177.177-.706.708-1.06,1.062Z" fill="currentColor"/></svg>