<?xml version="1.0" encoding="UTF-8"?><svg id="a" xmlns="http://www.w3.org/2000/svg" width="72.102" height="72.102" viewBox="0 0 72.102 72.102"><path d="M57.081,0H15.021C6.727,0,0,6.727,0,15.021v42.06c0,8.295,6.727,15.021,15.021,15.021h42.06c8.298,0,15.021-6.727,15.021-15.021V15.021c0-8.295-6.724-15.021-15.021-15.021ZM24.034,57.081h-9.013V24.034h9.013v33.047ZM19.528,20.225c-2.902,0-5.257-2.373-5.257-5.3s2.355-5.3,5.257-5.3,5.257,2.373,5.257,5.3-2.352,5.3-5.257,5.3ZM60.085,57.081h-9.013v-16.836c0-10.118-12.017-9.352-12.017,0v16.836h-9.013V24.034h9.013v5.303c4.194-7.769,21.03-8.343,21.03,7.439v20.306Z" fill="currentColor"/></svg>