<?xml version="1.0" encoding="UTF-8"?><svg id="a" xmlns="http://www.w3.org/2000/svg" width="66.557" height="66.557" viewBox="0 0 66.557 66.557"><path d="M33.279,5.998c8.885,0,9.939.033,13.45.194,9.019.41,13.231,4.69,13.641,13.641.161,3.508.191,4.562.191,13.447s-.033,9.939-.191,13.447c-.413,8.944-4.615,13.231-13.641,13.641-3.511.161-4.559.194-13.45.194s-9.939-.033-13.447-.194c-9.041-.413-13.231-4.712-13.641-13.644-.161-3.508-.194-4.559-.194-13.447s.036-9.936.194-13.447c.413-8.949,4.615-13.231,13.641-13.641,3.511-.158,4.562-.191,13.447-.191ZM33.279,0c-9.038,0-10.169.039-13.719.2C7.474.754.757,7.46.202,19.557c-.164,3.552-.202,4.684-.202,13.722s.039,10.172.2,13.722c.555,12.086,7.26,18.802,19.357,19.357,3.552.161,4.684.2,13.722.2s10.172-.039,13.722-.2c12.075-.555,18.808-7.26,19.354-19.357.164-3.55.202-4.684.202-13.722s-.039-10.169-.2-13.719C65.814,7.485,59.1.757,47.003.202,43.451.039,42.317,0,33.279,0ZM33.279,16.19c-9.437,0-17.089,7.651-17.089,17.089s7.651,17.091,17.089,17.091,17.089-7.651,17.089-17.091-7.651-17.089-17.089-17.089ZM33.279,44.372c-6.126,0-11.093-4.964-11.093-11.093s4.967-11.093,11.093-11.093,11.093,4.967,11.093,11.093-4.967,11.093-11.093,11.093ZM51.044,11.523c-2.207,0-3.996,1.789-3.996,3.993s1.789,3.993,3.996,3.993,3.991-1.789,3.991-3.993-1.786-3.993-3.991-3.993Z" fill="currentColor"/></svg>