<?xml version="1.0" encoding="UTF-8"?><svg id="a" xmlns="http://www.w3.org/2000/svg" width="162.144" height="162.144" viewBox="0 0 162.144 162.144"><path d="M81.072,0C36.369,0,0,36.369,0,81.072c0,13.276,3.228,25.805,8.91,36.877v.348h.179c13.511,26.019,40.696,43.846,71.983,43.846,25.313,0,47.946-11.667,62.824-29.899h.171v-.218c11.292-13.934,18.076-31.664,18.076-50.955C162.144,36.369,125.775,0,81.072,0ZM7.369,111.017c-3.917-9.605-5.872-19.791-5.872-29.97,0-13.077,3.226-26.143,9.665-37.949h41.984v67.184H7.369v.735ZM7.671,111.782h77.865v-1.5h-30.89V43.098h12.9c4.523,0,9.85,1.805,13.571,4.599l26.21,19.68c13.25,10.908,30.314,11.222,33.111,17.642-4.067-.857-15.102-2.602-18.805-3.186l1.531,1.604c.083.087,8.007,8.458,9.665,16.282h-10.634c-3.609-3.302-8.396-5.335-13.662-5.335-11.248,0-20.286,9.168-20.286,20.282,0,.703.036,1.414.11,2.131H10.004c-.829-1.643-1.617-3.31-2.333-5.016ZM128.82,114.688c0-4.838-1.734-9.632-5.145-13.469h8.729v.153h10.018c.622,1.921,3.251,3.41,3.251,4.987l.004,6.902c-.49,4.548-11.559,6.247-17.482,6.422.417-1.645.624-3.323.624-4.996ZM142.28,98.286c0,.5-.002,1.022-.002,1.586h-7.902c-.477-2.61-1.597-5.249-2.935-7.661l10.687,1.159c.135,1.859.152,3.264.152,4.915ZM130.499,90.6c-1.713-2.783-3.585-5.145-4.833-6.609,5.084.815,13.728,2.245,15.374,2.708.423,1.432.742,3.166.952,5.148l-11.493-1.247ZM81.072,160.644c-22.464,0-44.928-9.466-60.87-28.399h121.741c-15.942,18.933-38.406,28.399-60.87,28.399ZM143.169,130.744H19.013v.049c-3.119-3.885-5.884-8.064-8.24-12.496h79.302c-.168-1.143-.327-2.098-.327-3.625,0-10.36,8.427-18.789,18.785-18.789s18.785,8.429,18.785,18.789c0,2.753-.524,4.554-1.132,6.527h1.016c4.963,0,19.283-1.429,19.971-7.858v-6.982c0-2.549-3.395-4.244-3.395-5.852v-2.291c.002-.153.003-.31.003-.47,0-27.553-14.012-13.844-35.527-31.549l-26.236-19.701c-4.025-3.022-9.57-4.9-14.471-4.9H12.026C25.761,17.667,51.556,1.5,81.072,1.5c43.876,0,79.572,35.696,79.572,79.572,0,18.779-6.554,36.048-17.475,49.672Z" fill="currentColor"/><path d="M108.533,100.419c-8.319,0-15.088,6.769-15.088,15.088s6.769,15.088,15.088,15.088,15.088-6.769,15.088-15.088-6.769-15.088-15.088-15.088ZM108.533,129.095c-7.492,0-13.588-6.096-13.588-13.588s6.096-13.588,13.588-13.588,13.588,6.096,13.588,13.588-6.096,13.588-13.588,13.588Z" fill="currentColor"/><path d="M108.533,106.628c-4.896,0-8.879,3.983-8.879,8.879s3.983,8.879,8.879,8.879,8.879-3.983,8.879-8.879-3.983-8.879-8.879-8.879ZM108.533,122.886c-4.069,0-7.379-3.31-7.379-7.379s3.31-7.379,7.379-7.379,7.379,3.31,7.379,7.379-3.31,7.379-7.379,7.379Z" fill="currentColor"/><path d="M105.954,78.062c1.968,0,3.295-.73,3.295-2.667,0-1.514-.759-2.31-3.775-4.672l-21.549-16.875c-3.448-2.223-9.568-7.631-15.162-7.631h-4.417c-2.931,0-4.265,2.227-4.265,4.296v17.111c0,5.632,4.734,7.611,8.294,8.609,9.988.489,37.415,1.829,37.579,1.829ZM61.58,67.624v-17.111c0-.467.133-2.796,2.765-2.796h4.417c5.937,0,13.789,6.957,35.786,24.187,2.952,2.312,3.2,2.747,3.2,3.492,0,1.008-.598,1.167-1.797,1.167-.138,0-.285-.004-.44-.011l-36.813-1.785c-4.922-1.397-7.119-3.602-7.119-7.142Z" fill="currentColor"/><rect x="59.305" y="77.873" width="1.5" height="7.172" fill="currentColor"/></svg>