<?xml version="1.0" encoding="UTF-8"?><svg id="a" xmlns="http://www.w3.org/2000/svg" width="22.518" height="21.416" xmlns:xlink="http://www.w3.org/1999/xlink" viewBox="0 0 22.518 21.416"><defs><clipPath id="b"><rect x="-2020.34" y="-87.092" width="1920.271" height="161.354" fill="none"/></clipPath></defs><g clip-path="url(#b)"><text transform="translate(-224.166 7.383)" fill="#f4f7f9" font-family="ZalandoSansSemiExpanded-SemiBold, &apos;Zalando Sans SemiExpanded&apos;" font-size="25.299" font-variation-settings="&apos;wght&apos; 600" font-weight="600"><tspan x="0" y="0" letter-spacing=".025em">U</tspan><tspan x="20.112" y="0" letter-spacing=".013em">p</tspan><tspan x="37.417" y="0" letter-spacing=".023em">f</tspan><tspan x="48.878" y="0" letter-spacing=".012em">r</tspan><tspan x="60.262" y="0" letter-spacing=".025em">o</tspan><tspan x="77.288" y="0" letter-spacing=".023em">n</tspan><tspan x="94.492" y="0" letter-spacing=".025em">t pricing b</tspan><tspan x="233.533" y="0" letter-spacing=".019em">e</tspan><tspan x="249.952" y="0" letter-spacing=".01em">f</tspan><tspan x="261.084" y="0" letter-spacing=".025em">o</tspan><tspan x="278.11" y="0" letter-spacing=".012em">r</tspan><tspan x="289.495" y="0" letter-spacing=".025em">e</tspan><tspan x="306.065" y="0" letter-spacing=".023em"> </tspan><tspan x="313.326" y="0" letter-spacing=".008em">w</tspan><tspan x="335.716" y="0" letter-spacing=".025em">ork begins</tspan></text></g><polygon points="11.259 0 14.042 8.007 22.518 8.18 15.763 13.302 18.217 21.416 11.259 16.574 4.301 21.416 6.755 13.302 0 8.18 8.476 8.007 11.259 0" fill="currentColor"/></svg>