<?xml version="1.0" encoding="UTF-8"?><svg id="a" xmlns="http://www.w3.org/2000/svg" width="273.433" height="59.816" viewBox="0 0 273.433 59.816"><path d="M76.816,18.201h4.507l4.767,22.837v-22.837h3.771v32.935h-4.507l-4.767-22.491v22.491h-3.77V18.201Z" fill="#fff"/><path d="M105.028,48.535l-2.6,2.6h-7.237l-2.6-2.6v-27.734l2.6-2.6h7.237l2.6,2.6v27.734ZM97.617,21.754l-.866.866v24.095l.866.866h2.384l.867-.866v-24.095l-.867-.866h-2.384Z" fill="#fff"/><path d="M107.758,18.201h9.62l2.6,2.6v13.694l-2.297,2.297,2.601,14.344h-4.03l-2.557-14.041h-1.777v14.041h-4.16V18.201ZM115.818,32.848v-10.314l-.867-.867h-3.033v12.047h3.033l.867-.866Z" fill="#fff"/><path d="M129.729,21.667v29.468h-4.16v-29.468h-3.943v-3.467h12.047v3.467h-3.943Z" fill="#fff"/><path d="M139.654,32.805h4.376v-14.604h4.16v32.935h-4.16v-14.69h-4.376v14.69h-4.16V18.201h4.16v14.604Z" fill="#fff"/><path d="M165.091,22.534l-.867-.867h-1.517l-.866.867v9.274l.866.866h4.074l2.6,2.601v13.26l-2.6,2.6h-6.587l-2.6-2.6v-6.89h4.16v5.157l.867.867h1.733l.867-.867v-9.707l-.867-.867h-4.074l-2.6-2.6v-12.827l2.6-2.6h6.371l2.6,2.6v6.934h-4.16v-5.2Z" fill="#fff"/><path d="M178.742,21.667v29.468h-4.16v-29.468h-3.943v-3.467h12.047v3.467h-3.943Z" fill="#fff"/><path d="M186.283,42.641l-.823,8.494h-4.16l3.943-32.935h5.98l4.03,32.935h-4.333l-.823-8.494h-3.813ZM188.19,22.491l-1.604,16.598h3.207l-1.604-16.598Z" fill="#fff"/><path d="M197.074,18.201h9.62l2.6,2.6v13.694l-2.297,2.297,2.601,14.344h-4.03l-2.557-14.041h-1.777v14.041h-4.16V18.201ZM205.134,32.848v-10.314l-.867-.867h-3.033v12.047h3.033l.867-.866Z" fill="#fff"/><path d="M223.336,32.805h4.376v-14.604h4.16v32.935h-4.16v-14.69h-4.376v14.69h-4.16V18.201h4.16v14.604Z" fill="#fff"/><path d="M237.464,51.135l-3.77-32.935h4.073l2.687,28.038,2.687-28.038h3.9l-3.771,32.935h-5.807Z" fill="#fff"/><path d="M251.288,42.641l-.823,8.494h-4.16l3.943-32.935h5.98l4.03,32.935h-4.333l-.823-8.494h-3.813ZM253.195,22.491l-1.604,16.598h3.207l-1.604-16.598Z" fill="#fff"/><path d="M261.82,20.801l2.6-2.6h6.414l2.6,2.6v7.41h-4.16v-5.677l-.866-.867h-1.561l-.866.867v24.181l.866.866h1.561l.866-.866v-5.634h4.16v7.454l-2.6,2.6h-6.414l-2.6-2.6v-27.734Z" fill="#fff"/><polygon points="31.447 0 39.221 22.365 62.894 22.848 44.026 37.153 50.882 59.816 31.447 46.292 12.012 59.816 18.868 37.153 0 22.848 23.673 22.365 31.447 0" fill="#cc0d0d"/></svg>