<?xml version="1.0" encoding="UTF-8"?><svg id="a" xmlns="http://www.w3.org/2000/svg" width="2372.798" height="2186.818" viewBox="0 0 2372.798 2186.818"><polygon points="1275.919 90.549 1171.669 906.154 1368.526 240.778 1196.885 912.91 1788.345 0 1219.493 925.963 1716.317 456.861 1237.952 944.422 1996.196 502.136 1251.005 967.03 1911.821 784.073 1257.761 992.246 2372.798 1076.3 1257.761 1018.351 1817.156 1183.312 1251.005 1043.567 2121.73 1518.755 1237.952 1066.174 1716.317 1508.466 1219.493 1084.634 1732.781 1887.126 1196.885 1097.686 1450.844 1948.864 1171.669 1104.443 1129.806 1942.69 1145.564 1104.443 844.939 2186.818 1120.348 1097.686 688.944 1850.646 1097.741 1084.634 405.413 1806.866 1079.281 1066.174 339.559 1450.844 1066.229 1043.567 306.632 1201.834 1059.472 1018.351 0 917.839 1059.472 992.246 152.287 646.191 1066.229 967.03 329.269 356.023 1079.281 944.422 720.277 438.34 1097.741 925.963 810.826 257.242 1120.348 912.91 893.143 82.317 1145.564 906.154 1275.919 90.549" fill="currentColor"/></svg>